<svg width="100" height="100" viewBox="0 0 100 100" fill="none" xmlns="http://www.w3.org/2000/svg">
<circle cx="50" cy="50" r="50" fill="#FB0000"/>
<path d="M50 32.5C51.709 32.5 53.5205 32.5911 55.4346 32.7734C57.3486 32.9557 59.2969 33.2406 61.2793 33.6279C63.2617 34.0153 65.21 34.5166 67.124 35.1318C69.0381 35.7471 70.9066 36.4762 72.7295 37.3193C74.5524 38.1624 76.2044 39.1423 77.6855 40.2588C79.1667 41.3753 80.5225 42.6172 81.7529 43.9844C82.7327 45.1465 83.5189 46.4111 84.1113 47.7783C84.7038 49.1455 85 50.6152 85 52.1875V56.5625C85 57.474 84.8291 58.3285 84.4873 59.126C84.1455 59.9235 83.6784 60.6185 83.0859 61.2109C82.4935 61.8034 81.7985 62.2705 81.001 62.6123C80.2035 62.9541 79.349 63.125 78.4375 63.125H69.6875C68.776 63.125 67.9216 62.9541 67.124 62.6123C66.3265 62.2705 65.6315 61.8034 65.0391 61.2109C64.4466 60.6185 63.9795 59.9235 63.6377 59.126C63.2959 58.3285 63.125 57.474 63.125 56.5625V52.1875C63.125 51.5951 62.9085 51.0824 62.4756 50.6494C62.0426 50.2165 61.5299 50 60.9375 50H39.0625C38.4701 50 37.9574 50.2165 37.5244 50.6494C37.0915 51.0824 36.875 51.5951 36.875 52.1875V56.5625C36.875 57.474 36.7041 58.3285 36.3623 59.126C36.0205 59.9235 35.5534 60.6185 34.9609 61.2109C34.3685 61.8034 33.6735 62.2705 32.876 62.6123C32.0785 62.9541 31.224 63.125 30.3125 63.125H21.5625C20.651 63.125 19.7965 62.9541 18.999 62.6123C18.2015 62.2705 17.5065 61.8034 16.9141 61.2109C16.3216 60.6185 15.8545 59.9235 15.5127 59.126C15.1709 58.3285 15 57.474 15 56.5625V52.1875C15 50.638 15.2962 49.1797 15.8887 47.8125C16.4811 46.4453 17.2673 45.1693 18.2471 43.9844C19.4092 42.6172 20.7536 41.3867 22.2803 40.293C23.807 39.1992 25.4704 38.2194 27.2705 37.3535C29.0706 36.4876 30.9277 35.7585 32.8418 35.166C34.7559 34.5736 36.7155 34.0723 38.7207 33.6621C40.7259 33.252 42.6628 32.9557 44.5312 32.7734C46.3997 32.5911 48.2227 32.5 50 32.5ZM80.625 52.1875C80.625 51.0026 80.3402 49.8861 79.7705 48.8379C79.2008 47.7897 78.4831 46.8213 77.6172 45.9326C76.7513 45.0439 75.7829 44.2578 74.7119 43.5742C73.6409 42.8906 72.6497 42.2868 71.7383 41.7627C70.1432 40.9196 68.457 40.1904 66.6797 39.5752C64.9023 38.96 63.068 38.4587 61.1768 38.0713C59.2855 37.6839 57.4056 37.3877 55.5371 37.1826C53.6686 36.9775 51.8229 36.875 50 36.875C48.1999 36.875 46.3542 36.9661 44.4629 37.1484C42.5716 37.3307 40.6917 37.627 38.8232 38.0371C36.9548 38.4473 35.1318 38.96 33.3545 39.5752C31.5771 40.1904 29.8796 40.9196 28.2617 41.7627C27.3275 42.264 26.3363 42.8564 25.2881 43.54C24.2399 44.2236 23.2829 45.0098 22.417 45.8984C21.5511 46.7871 20.8219 47.7555 20.2295 48.8037C19.637 49.8519 19.3522 50.9798 19.375 52.1875V56.5625C19.375 57.1549 19.5915 57.6676 20.0244 58.1006C20.4574 58.5335 20.9701 58.75 21.5625 58.75H30.3125C30.9049 58.75 31.4176 58.5335 31.8506 58.1006C32.2835 57.6676 32.5 57.1549 32.5 56.5625V52.1875C32.5 51.276 32.6709 50.4215 33.0127 49.624C33.3545 48.8265 33.8216 48.1315 34.4141 47.5391C35.0065 46.9466 35.7015 46.4795 36.499 46.1377C37.2965 45.7959 38.151 45.625 39.0625 45.625H60.9375C61.849 45.625 62.7034 45.7959 63.501 46.1377C64.2985 46.4795 64.9935 46.9466 65.5859 47.5391C66.1784 48.1315 66.6455 48.8265 66.9873 49.624C67.3291 50.4215 67.5 51.276 67.5 52.1875V56.5625C67.5 57.1549 67.7165 57.6676 68.1494 58.1006C68.5824 58.5335 69.0951 58.75 69.6875 58.75H78.4375C79.0299 58.75 79.5426 58.5335 79.9756 58.1006C80.4085 57.6676 80.625 57.1549 80.625 56.5625V52.1875Z" fill="white"/>
</svg>
