<svg width="70" height="70" viewBox="0 0 70 70" fill="none" xmlns="http://www.w3.org/2000/svg">
<g clip-path="url(#clip0_103_680)">
<path d="M56.875 35C56.875 37.4675 56.4638 39.8431 55.7113 42.0569L52.15 38.4956C52.383 37.345 52.5003 36.1739 52.5 35V30.625C52.5 30.0448 52.7305 29.4884 53.1407 29.0782C53.5509 28.6679 54.1073 28.4375 54.6875 28.4375C55.2677 28.4375 55.8241 28.6679 56.2343 29.0782C56.6445 29.4884 56.875 30.0448 56.875 30.625V35ZM35 52.5C38.5788 52.5 41.9037 51.4281 44.6775 49.5819L47.8188 52.7275C44.6957 54.9923 41.0266 56.3859 37.1875 56.7656V65.625H50.3125C50.8927 65.625 51.4491 65.8554 51.8593 66.2657C52.2695 66.6759 52.5 67.2323 52.5 67.8125C52.5 68.3926 52.2695 68.949 51.8593 69.3593C51.4491 69.7695 50.8927 70 50.3125 70H19.6875C19.1073 70 18.5509 69.7695 18.1407 69.3593C17.7305 68.949 17.5 68.3926 17.5 67.8125C17.5 67.2323 17.7305 66.6759 18.1407 66.2657C18.5509 65.8554 19.1073 65.625 19.6875 65.625H32.8125V56.7656C27.4167 56.2233 22.4148 53.6961 18.777 49.6743C15.1392 45.6526 13.1249 40.4229 13.125 35V30.625C13.125 30.0448 13.3555 29.4884 13.7657 29.0782C14.1759 28.6679 14.7323 28.4375 15.3125 28.4375C15.8927 28.4375 16.4491 28.6679 16.8593 29.0782C17.2695 29.4884 17.5 30.0448 17.5 30.625V35C17.5 39.6413 19.3437 44.0925 22.6256 47.3743C25.9075 50.6562 30.3587 52.5 35 52.5ZM48.125 13.125V34.4706L22.5662 8.91185C23.5679 5.96853 25.5815 3.47616 28.2486 1.87846C30.9158 0.280747 34.0634 -0.31862 37.1311 0.187059C40.1988 0.692738 42.9874 2.27065 45.0007 4.63987C47.0139 7.0091 48.1211 10.0159 48.125 13.125Z" fill="white"/>
<path d="M41.5012 46.4056L21.8749 26.775V35C21.8742 37.2982 22.4771 39.5564 23.6231 41.5486C24.7691 43.5407 26.4181 45.197 28.4052 46.3518C30.3923 47.5066 32.6477 48.1193 34.946 48.1288C37.2442 48.1382 39.5047 47.544 41.5012 46.4056ZM7.20117 5.92373L59.7012 58.4237L62.7987 55.3262L10.2987 2.82623L7.20117 5.92373Z" fill="white"/>
</g>
<defs>
<clipPath id="clip0_103_680">
<rect width="70" height="70" fill="white"/>
</clipPath>
</defs>
</svg>
