<svg width="68" height="68" viewBox="0 0 68 68" fill="none" xmlns="http://www.w3.org/2000/svg">
<path d="M33.9998 0.666687C38.4201 0.666687 42.6593 2.42263 45.785 5.54824C48.9106 8.67385 50.6665 12.9131 50.6665 17.3334C50.6665 21.7536 48.9106 25.9929 45.785 29.1185C42.6593 32.2441 38.4201 34 33.9998 34C29.5796 34 25.3403 32.2441 22.2147 29.1185C19.0891 25.9929 17.3332 21.7536 17.3332 17.3334C17.3332 12.9131 19.0891 8.67385 22.2147 5.54824C25.3403 2.42263 29.5796 0.666687 33.9998 0.666687ZM33.9998 42.3334C52.4165 42.3334 67.3332 49.7917 67.3332 59V67.3334H0.666504V59C0.666504 49.7917 15.5832 42.3334 33.9998 42.3334Z" fill="#08084A"/>
</svg>
